<?xml version="1.0" encoding="utf-8"?>
<!-- Generator: Adobe Illustrator 22.1.0, SVG Export Plug-In . SVG Version: 6.00 Build 0)  -->
<svg version="1.1" id="Layer_1" xmlns="http://www.w3.org/2000/svg" xmlns:xlink="http://www.w3.org/1999/xlink" x="0px" y="0px"
	 viewBox="0 0 685.185 188.889" enable-background="new 0 0 685.185 188.889" xml:space="preserve">
<g>
	<path fill="#FFFFFF" d="M427.249,115.802c-2.912-1.625-5.087-3.851-6.521-6.679c-0.126-0.253-0.189-0.507-0.189-0.76
		c0-0.507,0.179-0.928,0.538-1.267c0.358-0.337,0.833-0.506,1.425-0.506c0.844,0,1.456,0.402,1.836,1.203
		c1.14,2.111,2.838,3.746,5.097,4.906c2.257,1.161,4.97,1.741,8.135,1.741c3.63,0,6.489-0.907,8.579-2.722
		c2.089-1.814,3.134-4.389,3.134-7.724c0-2.87-1.024-5.244-3.07-7.123c-2.048-1.877-5.076-3.091-9.086-3.64
		c-4.685-0.675-8.367-2.205-11.047-4.59c-2.682-2.384-4.021-5.287-4.021-8.706c0-2.447,0.622-4.611,1.867-6.489
		c1.245-1.877,2.997-3.333,5.255-4.368c2.258-1.034,4.864-1.551,7.819-1.551c3.08,0,5.908,0.739,8.483,2.216
		c2.574,1.478,4.474,3.25,5.698,5.318c0.168,0.296,0.253,0.633,0.253,1.013c0,0.338-0.095,0.644-0.285,0.918
		c-0.189,0.275-0.454,0.497-0.791,0.665c-0.169,0.085-0.423,0.127-0.76,0.127c-0.76,0-1.352-0.316-1.772-0.95
		c-2.491-3.672-6.1-5.508-10.826-5.508c-3.504,0-6.236,0.792-8.199,2.375c-1.962,1.583-2.943,3.789-2.943,6.616
		c0,2.364,0.97,4.348,2.912,5.951c1.94,1.604,4.938,2.744,8.99,3.419c5.317,0.886,9.2,2.522,11.648,4.907
		c2.448,2.385,3.673,5.519,3.673,9.401c0,2.912-0.645,5.445-1.932,7.597c-1.288,2.153-3.102,3.798-5.444,4.938
		s-5.055,1.71-8.136,1.71C433.601,118.239,430.161,117.427,427.249,115.802z"/>
	<path fill="#FFFFFF" d="M512.465,68.699c0.337,0.359,0.506,0.813,0.506,1.361v45.646c0,0.55-0.169,1.003-0.506,1.361
		c-0.339,0.359-0.782,0.538-1.33,0.538c-0.549,0-1.013-0.179-1.393-0.538c-0.38-0.358-0.57-0.812-0.57-1.361V76.897l-19.246,39.188
		c-0.296,0.592-0.845,0.887-1.646,0.887c-0.76,0-1.352-0.4-1.773-1.203l-19.183-38.302v38.239c0,0.55-0.181,1.003-0.538,1.361
		c-0.359,0.359-0.813,0.538-1.361,0.538c-0.549,0-1.003-0.179-1.361-0.538c-0.359-0.358-0.538-0.812-0.538-1.361V70.06
		c0-0.548,0.179-1.002,0.538-1.361c0.358-0.358,0.812-0.539,1.361-0.539c0.844,0,1.413,0.317,1.709,0.95l21.272,42.039l21.02-42.039
		c0.38-0.633,0.949-0.95,1.709-0.95C511.683,68.16,512.126,68.34,512.465,68.699z"/>
	<path fill="#FFFFFF" d="M526.171,117.067c-0.359-0.358-0.538-0.812-0.538-1.361V70.06c0-0.548,0.179-1.002,0.538-1.361
		c0.358-0.358,0.812-0.539,1.361-0.539c0.548,0,1.002,0.18,1.361,0.539c0.357,0.359,0.538,0.813,0.538,1.361v45.646
		c0,0.55-0.181,1.003-0.538,1.361c-0.359,0.359-0.813,0.538-1.361,0.538C526.984,117.605,526.529,117.427,526.171,117.067z"/>
	<path fill="#FFFFFF" d="M542.662,117.067c-0.38-0.358-0.569-0.812-0.569-1.361V70.06c0-0.548,0.189-1.002,0.569-1.361
		c0.38-0.358,0.823-0.539,1.33-0.539c0.548,0,1.002,0.18,1.361,0.539c0.357,0.359,0.538,0.813,0.538,1.361v44.127h26.021
		c0.548,0,1.002,0.159,1.361,0.476c0.357,0.316,0.538,0.728,0.538,1.234c0,0.506-0.181,0.918-0.538,1.234
		c-0.359,0.316-0.813,0.475-1.361,0.475h-27.92C543.485,117.605,543.042,117.427,542.662,117.067z"/>
	<path fill="#FFFFFF" d="M582.263,117.067c-0.359-0.358-0.538-0.812-0.538-1.361V70.06c0-0.548,0.179-1.002,0.538-1.361
		c0.358-0.358,0.812-0.539,1.361-0.539h30.452c0.507,0,0.95,0.18,1.33,0.539c0.38,0.359,0.569,0.813,0.569,1.361
		c0,0.507-0.189,0.95-0.569,1.33s-0.823,0.57-1.33,0.57h-28.553v18.993h20.956c0.548,0,1.002,0.18,1.36,0.538
		c0.358,0.359,0.538,0.813,0.538,1.361c0,0.549-0.18,1.013-0.538,1.393s-0.812,0.57-1.36,0.57h-20.956v18.993h28.553
		c0.507,0,0.95,0.19,1.33,0.57s0.569,0.823,0.569,1.329c0,0.55-0.189,1.003-0.569,1.361c-0.38,0.359-0.823,0.538-1.33,0.538h-30.452
		C583.075,117.605,582.621,117.427,582.263,117.067z"/>
	<path fill="#FFFFFF" d="M629.651,115.802c-2.912-1.625-5.087-3.851-6.521-6.679c-0.126-0.253-0.189-0.507-0.189-0.76
		c0-0.507,0.179-0.928,0.538-1.267c0.358-0.337,0.833-0.506,1.425-0.506c0.844,0,1.456,0.402,1.836,1.203
		c1.14,2.111,2.838,3.746,5.097,4.906c2.257,1.161,4.97,1.741,8.135,1.741c3.63,0,6.489-0.907,8.579-2.722
		c2.089-1.814,3.134-4.389,3.134-7.724c0-2.87-1.024-5.244-3.07-7.123c-2.048-1.877-5.076-3.091-9.086-3.64
		c-4.685-0.675-8.367-2.205-11.047-4.59c-2.682-2.384-4.021-5.287-4.021-8.706c0-2.447,0.622-4.611,1.867-6.489
		c1.245-1.877,2.997-3.333,5.255-4.368c2.258-1.034,4.864-1.551,7.819-1.551c3.08,0,5.908,0.739,8.483,2.216
		c2.574,1.478,4.474,3.25,5.698,5.318c0.168,0.296,0.253,0.633,0.253,1.013c0,0.338-0.095,0.644-0.285,0.918
		c-0.189,0.275-0.454,0.497-0.791,0.665c-0.169,0.085-0.423,0.127-0.76,0.127c-0.76,0-1.352-0.316-1.772-0.95
		c-2.491-3.672-6.1-5.508-10.826-5.508c-3.504,0-6.236,0.792-8.199,2.375c-1.962,1.583-2.943,3.789-2.943,6.616
		c0,2.364,0.97,4.348,2.912,5.951c1.94,1.604,4.938,2.744,8.99,3.419c5.317,0.886,9.2,2.522,11.648,4.907
		c2.448,2.385,3.673,5.519,3.673,9.401c0,2.912-0.645,5.445-1.932,7.597c-1.288,2.153-3.102,3.798-5.444,4.938
		s-5.055,1.71-8.136,1.71C636.002,118.239,632.563,117.427,629.651,115.802z"/>
</g>
<g>
	<path fill="#FFFFFF" d="M57.133,68.635c0.316,0.316,0.475,0.728,0.475,1.234c0,0.507-0.158,0.918-0.475,1.235
		c-0.317,0.316-0.728,0.475-1.235,0.475H39.88v44.127c0,0.55-0.18,1.003-0.538,1.361c-0.359,0.359-0.813,0.538-1.361,0.538
		c-0.549,0-1.003-0.179-1.361-0.538c-0.359-0.358-0.538-0.812-0.538-1.361V71.579H20.065c-0.507,0-0.918-0.158-1.235-0.475
		c-0.316-0.317-0.475-0.728-0.475-1.235c0-0.506,0.158-0.918,0.475-1.234c0.317-0.316,0.728-0.475,1.235-0.475h35.833
		C56.405,68.16,56.816,68.318,57.133,68.635z"/>
	<path fill="#FFFFFF" d="M65.426,117.067c-0.359-0.358-0.538-0.812-0.538-1.361V70.059c0-0.548,0.179-1.002,0.538-1.361
		c0.358-0.358,0.812-0.539,1.361-0.539c0.548,0,1.002,0.18,1.361,0.539c0.358,0.359,0.538,0.813,0.538,1.361v20.893h31.972V70.059
		c0-0.548,0.179-1.002,0.538-1.361c0.358-0.358,0.812-0.539,1.361-0.539c0.506,0,0.95,0.18,1.33,0.539
		c0.38,0.359,0.57,0.813,0.57,1.361v45.647c0,0.55-0.19,1.003-0.57,1.361c-0.38,0.359-0.823,0.538-1.33,0.538
		c-0.549,0-1.003-0.179-1.361-0.538c-0.359-0.358-0.538-0.812-0.538-1.361V94.371H68.687v21.335c0,0.55-0.18,1.003-0.538,1.361
		c-0.359,0.359-0.813,0.538-1.361,0.538C66.238,117.605,65.784,117.427,65.426,117.067z"/>
	<path fill="#FFFFFF" d="M147.698,116.149c0,0.465-0.18,0.823-0.538,1.076c-0.359,0.254-0.876,0.38-1.551,0.38
		c-0.422,0-0.76-0.084-1.013-0.253c-0.253-0.168-0.485-0.422-0.696-0.76L132.25,97.979h-1.14h-10.193v17.727
		c0,0.55-0.169,1.003-0.507,1.361c-0.338,0.359-0.802,0.538-1.393,0.538c-0.549,0-1.003-0.179-1.361-0.538
		c-0.359-0.358-0.538-0.812-0.538-1.361V70.059c0-0.59,0.179-1.054,0.538-1.393c0.358-0.337,0.812-0.507,1.361-0.507h12.092
		c3.039,0,5.761,0.633,8.167,1.899s4.283,3.039,5.635,5.318c1.35,2.279,2.026,4.875,2.026,7.787c0,3.461-0.96,6.448-2.881,8.958
		c-1.921,2.512-4.506,4.232-7.755,5.16l10.89,17.411C147.528,115.285,147.698,115.77,147.698,116.149z M131.11,94.181
		c2.321,0,4.389-0.464,6.205-1.393c1.814-0.928,3.238-2.236,4.273-3.925c1.034-1.688,1.551-3.587,1.551-5.698
		c0-2.153-0.517-4.083-1.551-5.793c-1.035-1.709-2.459-3.039-4.273-3.989c-1.815-0.949-3.884-1.424-6.205-1.424h-10.193v22.222
		H131.11z"/>
	<path fill="#FFFFFF" d="M156.149,117.067c-0.359-0.358-0.538-0.812-0.538-1.361V70.059c0-0.548,0.179-1.002,0.538-1.361
		c0.358-0.358,0.812-0.539,1.361-0.539h30.452c0.507,0,0.95,0.18,1.33,0.539c0.38,0.359,0.57,0.813,0.57,1.361
		c0,0.507-0.19,0.95-0.57,1.33s-0.823,0.57-1.33,0.57H159.41v18.993h20.956c0.548,0,1.002,0.18,1.361,0.538
		c0.358,0.359,0.538,0.813,0.538,1.361c0,0.549-0.18,1.013-0.538,1.393c-0.359,0.38-0.813,0.57-1.361,0.57H159.41v18.993h28.553
		c0.507,0,0.95,0.19,1.33,0.57s0.57,0.823,0.57,1.329c0,0.55-0.19,1.003-0.57,1.361c-0.38,0.359-0.823,0.538-1.33,0.538H157.51
		C156.961,117.605,156.507,117.427,156.149,117.067z"/>
	<path fill="#FFFFFF" d="M199.579,117.067c-0.359-0.358-0.538-0.812-0.538-1.361V70.059c0-0.548,0.179-1.002,0.538-1.361
		c0.358-0.358,0.812-0.539,1.361-0.539h30.452c0.507,0,0.95,0.18,1.33,0.539c0.38,0.359,0.57,0.813,0.57,1.361
		c0,0.507-0.19,0.95-0.57,1.33s-0.823,0.57-1.33,0.57H202.84v18.993h20.956c0.548,0,1.002,0.18,1.361,0.538
		c0.358,0.359,0.538,0.813,0.538,1.361c0,0.549-0.18,1.013-0.538,1.393c-0.359,0.38-0.813,0.57-1.361,0.57H202.84v18.993h28.553
		c0.507,0,0.95,0.19,1.33,0.57s0.57,0.823,0.57,1.329c0,0.55-0.19,1.003-0.57,1.361c-0.38,0.359-0.823,0.538-1.33,0.538h-30.452
		C200.391,117.605,199.938,117.427,199.579,117.067z"/>
</g>
<g>
	<path fill="#FFFFFF" d="M358.371,146.014l-71.707,27.88L236.644,45.243l71.706-27.88c10.1-3.927,20.643-4.718,31.632-2.371
		c10.987,2.345,21.008,7.453,30.059,15.322c9.052,7.869,15.833,17.603,20.343,29.204c3.383,8.7,5.078,17.627,5.089,26.774
		c0.01,9.15-1.432,17.594-4.323,25.335c-2.893,7.742-7.188,14.676-12.887,20.795C372.563,138.545,365.932,143.074,358.371,146.014z
		 M290.083,166.125l66.112-25.705c6.784-2.638,12.731-6.738,17.843-12.303c5.11-5.564,8.953-11.856,11.529-18.881
		c2.575-7.022,3.834-14.711,3.776-23.066c-0.06-8.353-1.628-16.493-4.709-24.417s-7.418-14.973-13.007-21.146
		c-5.591-6.174-11.712-10.993-18.365-14.458c-6.654-3.463-13.744-5.523-21.271-6.173c-7.528-0.65-14.683,0.343-21.467,2.981
		l-66.113,25.705L290.083,166.125z M293.502,158.357L252.181,52.08l60.519-23.53c8.08-3.142,16.537-3.701,25.371-1.681
		c8.835,2.021,16.914,6.317,24.239,12.889c7.325,6.574,12.851,14.65,16.575,24.231c3.727,9.583,5.107,19.27,4.146,29.063
		c-0.963,9.796-4.018,18.42-9.167,25.877c-5.149,7.458-11.764,12.757-19.843,15.898L293.502,158.357z M296.92,150.589l54.926-21.355
		c7.095-2.759,12.86-7.443,17.295-14.059c4.434-6.611,7.045-14.274,7.83-22.987c0.786-8.712-0.491-17.366-3.834-25.964
		c-3.322-8.546-8.222-15.777-14.696-21.697c-6.476-5.918-13.595-9.813-21.356-11.685c-7.763-1.87-15.167-1.437-22.209,1.302
		L259.949,55.5L296.92,150.589z M300.339,142.82l-32.623-83.903l49.332-19.181c6.06-2.356,12.43-2.686,19.111-0.991
		c6.68,1.696,12.815,5.168,18.404,10.417c5.588,5.25,9.863,11.683,12.823,19.296c2.94,7.562,4.127,15.178,3.563,22.851
		c-0.564,7.672-2.738,14.389-6.52,20.152s-8.701,9.823-14.76,12.178L300.339,142.82z M303.758,135.052l43.738-17.006
		c7.717-3,12.975-9.142,15.774-18.429c2.798-9.286,2.255-18.927-1.632-28.923c-2.557-6.577-6.205-12.165-10.943-16.762
		c-4.739-4.597-9.901-7.672-15.482-9.228c-5.584-1.556-10.914-1.347-15.989,0.626l-43.739,17.006L303.758,135.052z M307.177,127.284
		l-23.923-61.529l38.145-14.831c6.163-2.396,12.633-1.438,19.406,2.874c6.774,4.312,11.803,10.69,15.085,19.131
		c3.303,8.495,3.908,16.606,1.815,24.335s-6.221,12.792-12.383,15.189L307.177,127.284z M310.595,119.515l32.552-12.656
		c4.609-1.792,7.603-5.787,8.979-11.985c1.375-6.2,0.715-12.768-1.984-19.709c-2.719-6.992-6.674-12.296-11.865-15.911
		c-5.191-3.616-10.093-4.528-14.702-2.735l-32.552,12.656L310.595,119.515z"/>
</g>
</svg>
