<?xml version="1.0" encoding="utf-8"?>
<!-- Generator: Adobe Illustrator 22.1.0, SVG Export Plug-In . SVG Version: 6.00 Build 0)  -->
<svg version="1.1" id="Layer_1" xmlns="http://www.w3.org/2000/svg" xmlns:xlink="http://www.w3.org/1999/xlink" x="0px" y="0px"
	 viewBox="0 0 167.2 170.5" style="enable-background:new 0 0 167.2 170.5;" xml:space="preserve">
<style type="text/css">
	.st0{fill:#FFFFFF;}
</style>
<g>
	<path class="st0" d="M124.6,137.5l-71.7,27.9L2.9,36.7L74.6,8.9c10.1-3.9,20.6-4.7,31.6-2.4c11,2.3,21,7.5,30.1,15.3
		c9.1,7.9,15.8,17.6,20.3,29.2c3.4,8.7,5.1,17.6,5.1,26.8c0,9.2-1.4,17.6-4.3,25.3c-2.9,7.7-7.2,14.7-12.9,20.8
		C138.8,130,132.2,134.6,124.6,137.5z M56.3,157.6l66.1-25.7c6.8-2.6,12.7-6.7,17.8-12.3c5.1-5.6,9-11.9,11.5-18.9
		c2.6-7,3.8-14.7,3.8-23.1c-0.1-8.4-1.6-16.5-4.7-24.4s-7.4-15-13-21.1c-5.6-6.2-11.7-11-18.4-14.5c-6.7-3.5-13.7-5.5-21.3-6.2
		c-7.5-0.6-14.7,0.3-21.5,3L10.7,40.2L56.3,157.6z M59.8,149.9L18.4,43.6L79,20.1c8.1-3.1,16.5-3.7,25.4-1.7
		c8.8,2,16.9,6.3,24.2,12.9c7.3,6.6,12.9,14.7,16.6,24.2c3.7,9.6,5.1,19.3,4.1,29.1c-1,9.8-4,18.4-9.2,25.9
		c-5.1,7.5-11.8,12.8-19.8,15.9L59.8,149.9z M63.2,142.1l54.9-21.4c7.1-2.8,12.9-7.4,17.3-14.1c4.4-6.6,7-14.3,7.8-23
		c0.8-8.7-0.5-17.4-3.8-26c-3.3-8.5-8.2-15.8-14.7-21.7c-6.5-5.9-13.6-9.8-21.4-11.7c-7.8-1.9-15.2-1.4-22.2,1.3L26.2,47L63.2,142.1
		z M66.6,134.3L34,50.4l49.3-19.2c6.1-2.4,12.4-2.7,19.1-1c6.7,1.7,12.8,5.2,18.4,10.4c5.6,5.2,9.9,11.7,12.8,19.3
		c2.9,7.6,4.1,15.2,3.6,22.9c-0.6,7.7-2.7,14.4-6.5,20.2s-8.7,9.8-14.8,12.2L66.6,134.3z M70,126.6l43.7-17c7.7-3,13-9.1,15.8-18.4
		c2.8-9.3,2.3-18.9-1.6-28.9c-2.6-6.6-6.2-12.2-10.9-16.8c-4.7-4.6-9.9-7.7-15.5-9.2c-5.6-1.6-10.9-1.3-16,0.6l-43.7,17L70,126.6z
		 M73.4,118.8L49.5,57.3l38.1-14.8c6.2-2.4,12.6-1.4,19.4,2.9c6.8,4.3,11.8,10.7,15.1,19.1c3.3,8.5,3.9,16.6,1.8,24.3
		s-6.2,12.8-12.4,15.2L73.4,118.8z M76.8,111l32.6-12.7c4.6-1.8,7.6-5.8,9-12c1.4-6.2,0.7-12.8-2-19.7c-2.7-7-6.7-12.3-11.9-15.9
		c-5.2-3.6-10.1-4.5-14.7-2.7L57.3,60.7L76.8,111z"/>
</g>
</svg>
